<svg width="19" height="30" viewBox="0 0 19 30" fill="none" xmlns="http://www.w3.org/2000/svg">
<path d="M12.1272 10.4474C15.5473 10.4351 17.8562 3.61957 14.8065 2.53303C14.0286 2.26139 13.8187 2.50831 14.0286 3.49607C14.6583 6.55814 12.1766 10.7438 11.0653 8.49663C9.90471 6.13834 11.3617 1.7922 13.3125 1.7922C13.7817 1.7922 13.9916 1.52053 13.7076 1.26124C13.2384 0.829104 12.226 0.680963 11.4481 0.915557C7.00315 2.26138 7.58346 10.4598 12.1272 10.4474Z" fill="#EE46D3"/>
<path d="M2.39784 14.3615C4.33632 13.5096 6.5711 11.8921 7.01559 11.6205C8.41081 10.7562 8.44785 10.7192 8.28734 10.4846C7.92928 9.9413 6.71927 9.8672 5.91674 10.3487L5.36113 10.6698C5.44756 8.16332 5.66982 4.27397 5.70686 3.96529C5.76859 3.4961 4.50918 3.00225 3.90418 3.24919C3.45968 3.43439 2.16325 5.99024 1.26192 6.41004C0.977938 6.54586 0.743319 6.69399 0.743319 6.74338C0.743319 7.13848 1.87927 7.53359 2.68183 7.42246L3.21273 7.34843C3.21273 9.01528 3.2251 9.05232 3.05224 12.102C2.50897 12.4354 1.55825 13.0281 0.706303 13.4602C-0.133296 13.8924 -0.219738 14.1763 0.422308 14.448C1.13844 14.7443 1.79283 14.6332 2.39784 14.3615Z" fill="#EE46D3"/>
<path d="M7.05253 26.6715H6.12655C6.12655 26.3505 6.23766 19.9177 6.2994 19.7078C6.48457 19.0534 4.18808 18.7817 4.18808 19.3621C4.18808 19.646 3.54602 21.0906 3.00275 22.0414C2.24958 23.3502 2.34836 23.6465 3.55837 23.6835L4.06461 23.6959V27.2765L2.91632 27.8074C1.02722 28.6841 0.767922 29.0175 1.66926 29.3879C3.11386 29.9929 5.05235 28.4124 7.16365 27.721C8.74408 27.2024 8.69469 26.6592 7.05253 26.6715Z" fill="#EE46D3"/>
<path d="M16.8438 10.1018C12.3865 11.8304 1.10132 18.0163 1.10132 18.7448C1.10132 19.0905 1.85449 19.4979 2.66939 19.1275C3.17562 18.8929 4.114 18.362 6.12657 17.2137C11.3123 14.2504 16.8314 11.7687 18.5353 10.8427C19.5971 10.2624 18.7575 9.36102 16.8438 10.1018Z" fill="#EE46D3"/>
<path d="M13.7447 17.2014C10.5221 16.6458 8.48501 20.7326 9.62094 23.9799C10.2506 25.7949 11.8186 27.0173 14.0164 26.1653C16.2141 25.3257 17.3624 21.5105 16.8562 19.2633C16.5845 18.0286 14.9918 17.4113 13.7447 17.2014ZM14.9919 19.8066C14.8067 22.7946 12.6705 26.6098 11.7445 24.7578C11.0778 23.4119 11.4605 21.1524 12.3001 19.6338C13.2632 17.8805 15.1648 16.9668 14.9919 19.8066Z" fill="#EE46D3"/>
</svg>
