<svg width="93" height="41" viewBox="0 0 93 41" fill="none" xmlns="http://www.w3.org/2000/svg">
<path d="M28.3506 14.2031V27H26.6543V14.2031H28.3506ZM32.833 13.5V14.625C32.833 14.9766 32.7715 15.3486 32.6484 15.7412C32.5312 16.1279 32.3584 16.5029 32.1299 16.8662C31.9014 17.2236 31.626 17.5371 31.3037 17.8066L30.3721 17.165C30.6475 16.7783 30.8555 16.3828 30.9961 15.9785C31.1426 15.5684 31.2158 15.126 31.2158 14.6514V13.5H32.833ZM36.2344 19.3799V27H34.5996V17.4902H36.1465L36.2344 19.3799ZM35.9004 21.8848L35.1445 21.8584C35.1504 21.208 35.2354 20.6074 35.3994 20.0566C35.5635 19.5 35.8066 19.0166 36.1289 18.6064C36.4512 18.1963 36.8525 17.8799 37.333 17.6572C37.8135 17.4287 38.3701 17.3145 39.0029 17.3145C39.4482 17.3145 39.8584 17.3789 40.2334 17.5078C40.6084 17.6309 40.9336 17.8271 41.209 18.0967C41.4844 18.3662 41.6982 18.7119 41.8506 19.1338C42.0029 19.5557 42.0791 20.0654 42.0791 20.6631V27H40.4531V20.7422C40.4531 20.2441 40.3682 19.8457 40.1982 19.5469C40.0342 19.248 39.7998 19.0312 39.4951 18.8965C39.1904 18.7559 38.833 18.6855 38.4229 18.6855C37.9424 18.6855 37.541 18.7705 37.2188 18.9404C36.8965 19.1104 36.6387 19.3447 36.4453 19.6436C36.252 19.9424 36.1113 20.2852 36.0234 20.6719C35.9414 21.0527 35.9004 21.457 35.9004 21.8848ZM42.0615 20.9883L40.9717 21.3223C40.9775 20.8008 41.0625 20.2998 41.2266 19.8193C41.3965 19.3389 41.6396 18.9111 41.9561 18.5361C42.2783 18.1611 42.6738 17.8652 43.1426 17.6484C43.6113 17.4258 44.1475 17.3145 44.751 17.3145C45.2607 17.3145 45.7119 17.3818 46.1045 17.5166C46.5029 17.6514 46.8369 17.8594 47.1064 18.1406C47.3818 18.416 47.5898 18.7705 47.7305 19.2041C47.8711 19.6377 47.9414 20.1533 47.9414 20.751V27H46.3066V20.7334C46.3066 20.2002 46.2217 19.7871 46.0518 19.4941C45.8877 19.1953 45.6533 18.9873 45.3486 18.8701C45.0498 18.7471 44.6924 18.6855 44.2764 18.6855C43.9189 18.6855 43.6025 18.7471 43.3271 18.8701C43.0518 18.9932 42.8203 19.1631 42.6328 19.3799C42.4453 19.5908 42.3018 19.834 42.2021 20.1094C42.1084 20.3848 42.0615 20.6777 42.0615 20.9883ZM56.6338 17.4902V27H54.999V17.4902H56.6338ZM54.876 14.9678C54.876 14.7041 54.9551 14.4814 55.1133 14.2998C55.2773 14.1182 55.5176 14.0273 55.834 14.0273C56.1445 14.0273 56.3818 14.1182 56.5459 14.2998C56.7158 14.4814 56.8008 14.7041 56.8008 14.9678C56.8008 15.2197 56.7158 15.4365 56.5459 15.6182C56.3818 15.7939 56.1445 15.8818 55.834 15.8818C55.5176 15.8818 55.2773 15.7939 55.1133 15.6182C54.9551 15.4365 54.876 15.2197 54.876 14.9678ZM60.8701 19.5205V27H59.2441V17.4902H60.7822L60.8701 19.5205ZM60.4834 21.8848L59.8066 21.8584C59.8125 21.208 59.9092 20.6074 60.0967 20.0566C60.2842 19.5 60.5479 19.0166 60.8877 18.6064C61.2275 18.1963 61.6318 17.8799 62.1006 17.6572C62.5752 17.4287 63.0996 17.3145 63.6738 17.3145C64.1426 17.3145 64.5645 17.3789 64.9395 17.5078C65.3145 17.6309 65.6338 17.8301 65.8975 18.1055C66.167 18.3809 66.3721 18.7383 66.5127 19.1777C66.6533 19.6113 66.7236 20.1416 66.7236 20.7686V27H65.0889V20.751C65.0889 20.2529 65.0156 19.8545 64.8691 19.5557C64.7227 19.251 64.5088 19.0312 64.2275 18.8965C63.9463 18.7559 63.6006 18.6855 63.1904 18.6855C62.7861 18.6855 62.417 18.7705 62.083 18.9404C61.7549 19.1104 61.4707 19.3447 61.2305 19.6436C60.9961 19.9424 60.8115 20.2852 60.6768 20.6719C60.5479 21.0527 60.4834 21.457 60.4834 21.8848Z" fill="black"/>
<rect x="1" y="1" width="91" height="39" rx="9" stroke="black" stroke-width="2"/>
</svg>
