<svg width="171" height="65" viewBox="0 0 171 65" fill="none" xmlns="http://www.w3.org/2000/svg">
<path d="M13.389 48.939L10.763 58H9.437L7.331 50.707L5.147 58L3.834 58.013L1.299 48.939H2.56L4.536 56.622L6.72 48.939H8.046L10.126 56.596L12.115 48.939H13.389ZM18.4796 50.746C19.017 50.746 19.5023 50.863 19.9356 51.097C20.369 51.3223 20.707 51.6647 20.9496 52.124C21.201 52.5833 21.3266 53.1423 21.3266 53.801V58H20.1566V53.97C20.1566 53.2593 19.979 52.7177 19.6236 52.345C19.2683 51.9637 18.783 51.773 18.1676 51.773C17.5436 51.773 17.0453 51.968 16.6726 52.358C16.3086 52.748 16.1266 53.3157 16.1266 54.061V58H14.9436V48.38H16.1266V51.89C16.3606 51.526 16.6813 51.2443 17.0886 51.045C17.5046 50.8457 17.9683 50.746 18.4796 50.746ZM30.019 54.165C30.019 54.3903 30.006 54.6287 29.98 54.88H24.286C24.3294 55.582 24.5677 56.1323 25.001 56.531C25.443 56.921 25.976 57.116 26.6 57.116C27.1114 57.116 27.536 56.999 27.874 56.765C28.2207 56.5223 28.4634 56.2017 28.602 55.803H29.876C29.6854 56.4877 29.304 57.0467 28.732 57.48C28.16 57.9047 27.4494 58.117 26.6 58.117C25.924 58.117 25.3174 57.9653 24.78 57.662C24.2514 57.3587 23.8354 56.9297 23.532 56.375C23.2287 55.8117 23.077 55.1617 23.077 54.425C23.077 53.6883 23.2244 53.0427 23.519 52.488C23.8137 51.9333 24.2254 51.5087 24.754 51.214C25.2914 50.9107 25.9067 50.759 26.6 50.759C27.276 50.759 27.874 50.9063 28.394 51.201C28.914 51.4957 29.3127 51.903 29.59 52.423C29.876 52.9343 30.019 53.515 30.019 54.165ZM28.797 53.918C28.797 53.4673 28.6974 53.0817 28.498 52.761C28.2987 52.4317 28.0257 52.1847 27.679 52.02C27.341 51.8467 26.964 51.76 26.548 51.76C25.95 51.76 25.4387 51.9507 25.014 52.332C24.598 52.7133 24.3597 53.242 24.299 53.918H28.797ZM33.0236 52.033C33.2316 51.6257 33.5262 51.3093 33.9076 51.084C34.2976 50.8587 34.7699 50.746 35.3246 50.746V51.968H35.0126C33.6866 51.968 33.0236 52.6873 33.0236 54.126V58H31.8406V50.876H33.0236V52.033ZM43.4502 54.165C43.4502 54.3903 43.4372 54.6287 43.4112 54.88H37.7172C37.7605 55.582 37.9988 56.1323 38.4322 56.531C38.8742 56.921 39.4072 57.116 40.0312 57.116C40.5425 57.116 40.9672 56.999 41.3052 56.765C41.6518 56.5223 41.8945 56.2017 42.0332 55.803H43.3072C43.1165 56.4877 42.7352 57.0467 42.1632 57.48C41.5912 57.9047 40.8805 58.117 40.0312 58.117C39.3552 58.117 38.7485 57.9653 38.2112 57.662C37.6825 57.3587 37.2665 56.9297 36.9632 56.375C36.6598 55.8117 36.5082 55.1617 36.5082 54.425C36.5082 53.6883 36.6555 53.0427 36.9502 52.488C37.2448 51.9333 37.6565 51.5087 38.1852 51.214C38.7225 50.9107 39.3378 50.759 40.0312 50.759C40.7072 50.759 41.3052 50.9063 41.8252 51.201C42.3452 51.4957 42.7438 51.903 43.0212 52.423C43.3072 52.9343 43.4502 53.515 43.4502 54.165ZM42.2282 53.918C42.2282 53.4673 42.1285 53.0817 41.9292 52.761C41.7298 52.4317 41.4568 52.1847 41.1102 52.02C40.7722 51.8467 40.3952 51.76 39.9792 51.76C39.3812 51.76 38.8698 51.9507 38.4452 52.332C38.0292 52.7133 37.7908 53.242 37.7302 53.918H42.2282ZM55.4975 54.165C55.4975 54.3903 55.4845 54.6287 55.4585 54.88H49.7645C49.8079 55.582 50.0462 56.1323 50.4795 56.531C50.9215 56.921 51.4545 57.116 52.0785 57.116C52.5899 57.116 53.0145 56.999 53.3525 56.765C53.6992 56.5223 53.9419 56.2017 54.0805 55.803H55.3545C55.1639 56.4877 54.7825 57.0467 54.2105 57.48C53.6385 57.9047 52.9279 58.117 52.0785 58.117C51.4025 58.117 50.7959 57.9653 50.2585 57.662C49.7299 57.3587 49.3139 56.9297 49.0105 56.375C48.7072 55.8117 48.5555 55.1617 48.5555 54.425C48.5555 53.6883 48.7029 53.0427 48.9975 52.488C49.2922 51.9333 49.7039 51.5087 50.2325 51.214C50.7699 50.9107 51.3852 50.759 52.0785 50.759C52.7545 50.759 53.3525 50.9063 53.8725 51.201C54.3925 51.4957 54.7912 51.903 55.0685 52.423C55.3545 52.9343 55.4975 53.515 55.4975 54.165ZM54.2755 53.918C54.2755 53.4673 54.1759 53.0817 53.9765 52.761C53.7772 52.4317 53.5042 52.1847 53.1575 52.02C52.8195 51.8467 52.4425 51.76 52.0265 51.76C51.4285 51.76 50.9172 51.9507 50.4925 52.332C50.0765 52.7133 49.8382 53.242 49.7775 53.918H54.2755ZM60.79 50.746C61.6567 50.746 62.3587 51.0103 62.896 51.539C63.4334 52.059 63.702 52.813 63.702 53.801V58H62.532V53.97C62.532 53.2593 62.3544 52.7177 61.999 52.345C61.6437 51.9637 61.1584 51.773 60.543 51.773C59.919 51.773 59.4207 51.968 59.048 52.358C58.684 52.748 58.502 53.3157 58.502 54.061V58H57.319V50.876H58.502V51.89C58.736 51.526 59.0524 51.2443 59.451 51.045C59.8584 50.8457 60.3047 50.746 60.79 50.746ZM68.8325 50.759C69.4478 50.759 69.9851 50.8933 70.4445 51.162C70.9125 51.4307 71.2591 51.7687 71.4845 52.176V50.876H72.6805V58.156C72.6805 58.806 72.5418 59.3823 72.2645 59.885C71.9871 60.3963 71.5885 60.795 71.0685 61.081C70.5571 61.367 69.9591 61.51 69.2745 61.51C68.3385 61.51 67.5585 61.289 66.9345 60.847C66.3105 60.405 65.9421 59.8027 65.8295 59.04H66.9995C67.1295 59.4733 67.3981 59.82 67.8055 60.08C68.2128 60.3487 68.7025 60.483 69.2745 60.483C69.9245 60.483 70.4531 60.2793 70.8605 59.872C71.2765 59.4647 71.4845 58.8927 71.4845 58.156V56.661C71.2505 57.077 70.9038 57.4237 70.4445 57.701C69.9851 57.9783 69.4478 58.117 68.8325 58.117C68.1998 58.117 67.6235 57.961 67.1035 57.649C66.5921 57.337 66.1891 56.8993 65.8945 56.336C65.5998 55.7727 65.4525 55.1313 65.4525 54.412C65.4525 53.684 65.5998 53.047 65.8945 52.501C66.1891 51.9463 66.5921 51.5173 67.1035 51.214C67.6235 50.9107 68.1998 50.759 68.8325 50.759ZM71.4845 54.425C71.4845 53.8877 71.3761 53.4197 71.1595 53.021C70.9428 52.6223 70.6481 52.319 70.2755 52.111C69.9115 51.8943 69.5085 51.786 69.0665 51.786C68.6245 51.786 68.2215 51.89 67.8575 52.098C67.4935 52.306 67.2031 52.6093 66.9865 53.008C66.7698 53.4067 66.6615 53.8747 66.6615 54.412C66.6615 54.958 66.7698 55.4347 66.9865 55.842C67.2031 56.2407 67.4935 56.5483 67.8575 56.765C68.2215 56.973 68.6245 57.077 69.0665 57.077C69.5085 57.077 69.9115 56.973 70.2755 56.765C70.6481 56.5483 70.9428 56.2407 71.1595 55.842C71.3761 55.4347 71.4845 54.9623 71.4845 54.425ZM75.5506 49.719C75.3253 49.719 75.1346 49.641 74.9786 49.485C74.8226 49.329 74.7446 49.1383 74.7446 48.913C74.7446 48.6877 74.8226 48.497 74.9786 48.341C75.1346 48.185 75.3253 48.107 75.5506 48.107C75.7673 48.107 75.9493 48.185 76.0966 48.341C76.2526 48.497 76.3306 48.6877 76.3306 48.913C76.3306 49.1383 76.2526 49.329 76.0966 49.485C75.9493 49.641 75.7673 49.719 75.5506 49.719ZM76.1226 50.876V58H74.9396V50.876H76.1226ZM81.8699 50.746C82.7365 50.746 83.4385 51.0103 83.9759 51.539C84.5132 52.059 84.7819 52.813 84.7819 53.801V58H83.6119V53.97C83.6119 53.2593 83.4342 52.7177 83.0789 52.345C82.7235 51.9637 82.2382 51.773 81.6229 51.773C80.9989 51.773 80.5005 51.968 80.1279 52.358C79.7639 52.748 79.5819 53.3157 79.5819 54.061V58H78.3989V50.876H79.5819V51.89C79.8159 51.526 80.1322 51.2443 80.5309 51.045C80.9382 50.8457 81.3845 50.746 81.8699 50.746ZM93.4743 54.165C93.4743 54.3903 93.4613 54.6287 93.4353 54.88H87.7413C87.7846 55.582 88.0229 56.1323 88.4563 56.531C88.8983 56.921 89.4313 57.116 90.0553 57.116C90.5666 57.116 90.9913 56.999 91.3293 56.765C91.6759 56.5223 91.9186 56.2017 92.0573 55.803H93.3313C93.1406 56.4877 92.7593 57.0467 92.1873 57.48C91.6153 57.9047 90.9046 58.117 90.0553 58.117C89.3793 58.117 88.7726 57.9653 88.2353 57.662C87.7066 57.3587 87.2906 56.9297 86.9873 56.375C86.6839 55.8117 86.5323 55.1617 86.5323 54.425C86.5323 53.6883 86.6796 53.0427 86.9743 52.488C87.2689 51.9333 87.6806 51.5087 88.2093 51.214C88.7466 50.9107 89.3619 50.759 90.0553 50.759C90.7313 50.759 91.3293 50.9063 91.8493 51.201C92.3693 51.4957 92.7679 51.903 93.0453 52.423C93.3313 52.9343 93.4743 53.515 93.4743 54.165ZM92.2523 53.918C92.2523 53.4673 92.1526 53.0817 91.9533 52.761C91.7539 52.4317 91.4809 52.1847 91.1343 52.02C90.7963 51.8467 90.4193 51.76 90.0033 51.76C89.4053 51.76 88.8939 51.9507 88.4693 52.332C88.0533 52.7133 87.8149 53.242 87.7543 53.918H92.2523ZM101.796 54.165C101.796 54.3903 101.783 54.6287 101.757 54.88H96.0628C96.1061 55.582 96.3445 56.1323 96.7778 56.531C97.2198 56.921 97.7528 57.116 98.3768 57.116C98.8881 57.116 99.3128 56.999 99.6508 56.765C99.9975 56.5223 100.24 56.2017 100.379 55.803H101.653C101.462 56.4877 101.081 57.0467 100.509 57.48C99.9368 57.9047 99.2261 58.117 98.3768 58.117C97.7008 58.117 97.0941 57.9653 96.5568 57.662C96.0281 57.3587 95.6121 56.9297 95.3088 56.375C95.0055 55.8117 94.8538 55.1617 94.8538 54.425C94.8538 53.6883 95.0011 53.0427 95.2958 52.488C95.5905 51.9333 96.0021 51.5087 96.5308 51.214C97.0681 50.9107 97.6835 50.759 98.3768 50.759C99.0528 50.759 99.6508 50.9063 100.171 51.201C100.691 51.4957 101.089 51.903 101.367 52.423C101.653 52.9343 101.796 53.515 101.796 54.165ZM100.574 53.918C100.574 53.4673 100.474 53.0817 100.275 52.761C100.075 52.4317 99.8025 52.1847 99.4558 52.02C99.1178 51.8467 98.7408 51.76 98.3248 51.76C97.7268 51.76 97.2155 51.9507 96.7908 52.332C96.3748 52.7133 96.1365 53.242 96.0758 53.918H100.574ZM104.8 52.033C105.008 51.6257 105.303 51.3093 105.684 51.084C106.074 50.8587 106.547 50.746 107.101 50.746V51.968H106.789C105.463 51.968 104.8 52.6873 104.8 54.126V58H103.617V50.876H104.8V52.033ZM113.896 51.851V56.05C113.896 56.3967 113.969 56.6437 114.117 56.791C114.264 56.9297 114.52 56.999 114.884 56.999H115.755V58H114.689C114.03 58 113.536 57.8483 113.207 57.545C112.877 57.2417 112.713 56.7433 112.713 56.05V51.851H111.79V50.876H112.713V49.082H113.896V50.876H115.755V51.851H113.896ZM120.984 50.746C121.521 50.746 122.007 50.863 122.44 51.097C122.873 51.3223 123.211 51.6647 123.454 52.124C123.705 52.5833 123.831 53.1423 123.831 53.801V58H122.661V53.97C122.661 53.2593 122.483 52.7177 122.128 52.345C121.773 51.9637 121.287 51.773 120.672 51.773C120.048 51.773 119.55 51.968 119.177 52.358C118.813 52.748 118.631 53.3157 118.631 54.061V58H117.448V48.38H118.631V51.89C118.865 51.526 119.186 51.2443 119.593 51.045C120.009 50.8457 120.473 50.746 120.984 50.746ZM127.207 52.033C127.415 51.6257 127.709 51.3093 128.091 51.084C128.481 50.8587 128.953 50.746 129.508 50.746V51.968H129.196C127.87 51.968 127.207 52.6873 127.207 54.126V58H126.024V50.876H127.207V52.033ZM131.744 49.719C131.519 49.719 131.328 49.641 131.172 49.485C131.016 49.329 130.938 49.1383 130.938 48.913C130.938 48.6877 131.016 48.497 131.172 48.341C131.328 48.185 131.519 48.107 131.744 48.107C131.961 48.107 132.143 48.185 132.29 48.341C132.446 48.497 132.524 48.6877 132.524 48.913C132.524 49.1383 132.446 49.329 132.29 49.485C132.143 49.641 131.961 49.719 131.744 49.719ZM132.316 50.876V58H131.133V50.876H132.316ZM137.244 56.908L139.454 50.876H140.715L137.92 58H136.542L133.747 50.876H135.021L137.244 56.908ZM148.639 54.165C148.639 54.3903 148.626 54.6287 148.6 54.88H142.906C142.95 55.582 143.188 56.1323 143.621 56.531C144.063 56.921 144.596 57.116 145.22 57.116C145.732 57.116 146.156 56.999 146.494 56.765C146.841 56.5223 147.084 56.2017 147.222 55.803H148.496C148.306 56.4877 147.924 57.0467 147.352 57.48C146.78 57.9047 146.07 58.117 145.22 58.117C144.544 58.117 143.938 57.9653 143.4 57.662C142.872 57.3587 142.456 56.9297 142.152 56.375C141.849 55.8117 141.697 55.1617 141.697 54.425C141.697 53.6883 141.845 53.0427 142.139 52.488C142.434 51.9333 142.846 51.5087 143.374 51.214C143.912 50.9107 144.527 50.759 145.22 50.759C145.896 50.759 146.494 50.9063 147.014 51.201C147.534 51.4957 147.933 51.903 148.21 52.423C148.496 52.9343 148.639 53.515 148.639 54.165ZM147.417 53.918C147.417 53.4673 147.318 53.0817 147.118 52.761C146.919 52.4317 146.646 52.1847 146.299 52.02C145.961 51.8467 145.584 51.76 145.168 51.76C144.57 51.76 144.059 51.9507 143.634 52.332C143.218 52.7133 142.98 53.242 142.919 53.918H147.417Z" fill="black"/>
<path d="M1.404 26.464C1.404 22.336 2.244 19.084 3.924 16.708C5.604 14.332 8.244 13.144 11.844 13.144C15.444 13.144 18.084 14.332 19.764 16.708C21.468 19.084 22.32 22.336 22.32 26.464C22.32 30.64 21.48 33.916 19.8 36.292C18.12 38.668 15.468 39.856 11.844 39.856C8.22 39.856 5.568 38.668 3.888 36.292C2.232 33.916 1.404 30.64 1.404 26.464ZM15.336 26.464C15.336 24.304 15.108 22.66 14.652 21.532C14.196 20.38 13.26 19.804 11.844 19.804C10.428 19.804 9.492 20.38 9.036 21.532C8.58 22.66 8.352 24.304 8.352 26.464C8.352 28.672 8.568 30.352 9 31.504C9.456 32.632 10.404 33.196 11.844 33.196C13.284 33.196 14.22 32.632 14.652 31.504C15.108 30.352 15.336 28.672 15.336 26.464ZM41.8762 40L38.2402 34.924L35.3602 40H27.6202L34.3522 29.524L27.3322 19.804H35.2522L38.8882 24.88L41.8042 19.804H49.5442L42.6682 30.1L49.7962 40H41.8762ZM71.7176 18.94L63.0776 40H55.8416L64.5536 19.768H54.2936V13.72H71.7176V18.94ZM94.1614 18.94L85.5214 40H78.2854L86.9974 19.768H76.7374V13.72H94.1614V18.94ZM100.189 35.68V29.848L111.241 14.08H118.981V29.56H121.753V35.68H118.981V40H111.853V35.68H100.189ZM112.393 22.036L107.425 29.56H112.393V22.036ZM135.556 32.044C135.844 33.676 136.732 34.492 138.22 34.492C139.3 34.492 140.032 33.988 140.416 32.98C140.824 31.948 141.028 30.304 141.028 28.048C140.548 28.744 139.876 29.296 139.012 29.704C138.148 30.112 137.176 30.316 136.096 30.316C133.792 30.316 131.92 29.596 130.48 28.156C129.04 26.716 128.32 24.64 128.32 21.928C128.32 20.152 128.692 18.604 129.436 17.284C130.18 15.94 131.236 14.908 132.604 14.188C133.996 13.468 135.616 13.108 137.464 13.108C141.136 13.108 143.692 14.224 145.132 16.456C146.596 18.664 147.328 21.88 147.328 26.104C147.328 30.832 146.62 34.36 145.204 36.688C143.812 39.016 141.412 40.18 138.004 40.18C136.156 40.18 134.56 39.808 133.216 39.064C131.896 38.296 130.876 37.3 130.156 36.076C129.46 34.828 129.064 33.484 128.968 32.044H135.556ZM137.788 24.844C138.628 24.844 139.288 24.604 139.768 24.124C140.248 23.62 140.488 22.948 140.488 22.108C140.488 21.148 140.236 20.428 139.732 19.948C139.252 19.468 138.58 19.228 137.716 19.228C136.852 19.228 136.168 19.48 135.664 19.984C135.184 20.464 134.944 21.16 134.944 22.072C134.944 22.912 135.184 23.584 135.664 24.088C136.168 24.592 136.876 24.844 137.788 24.844Z" fill="black"/>
<path d="M154.858 34.3678C154.484 34.9994 155.957 35.8181 161.127 37.8766C166.6 40.052 167.887 40.3327 168.051 39.4672C168.261 38.2742 155.489 33.362 154.858 34.3678Z" fill="#F531B3"/>
<path d="M162.483 9.5024C160.519 8.51994 160.097 8.73044 156.659 12.403C153.103 16.1924 152.589 17.0112 153.244 17.7363C154.437 19.0462 155.7 18.3445 160.331 13.8767C163.747 10.5784 163.934 10.2275 162.483 9.5024Z" fill="#F531B3"/>
<path d="M169.969 21.6895C168.565 20.9644 167.91 20.9878 165.407 21.8299C157.992 24.3562 152.495 25.5725 155.255 26.9293C156.378 27.4907 157.805 27.1632 166.577 24.4965C171.419 22.9995 171.84 22.672 169.969 21.6895Z" fill="#F531B3"/>
</svg>
