<svg width="45" height="36" viewBox="0 0 45 36" fill="none" xmlns="http://www.w3.org/2000/svg">
<path fill-rule="evenodd" clip-rule="evenodd" d="M41.1278 0.251183C39.9773 0.456238 39.36 0.477844 34.3933 0.488636C27.8132 0.510221 28.0798 0.456248 29.3425 1.55707C31.6995 3.59683 31.9802 4.03933 31.3628 4.70846C30.3386 5.80928 29.0619 6.16543 26.1156 6.16543C20.0265 6.17622 18.1886 8.03251 19.5214 12.8567C20.7421 17.2708 19.0444 18.4148 11.0332 18.5767C2.57306 18.7494 -0.541627 20.8431 0.0756958 25.9587C0.510628 29.5741 1.63305 29.7467 1.63305 26.196C1.63305 21.0372 4.22861 19.2242 11.6646 19.2242C19.5635 19.2242 22.6221 17.055 21.4015 12.3171C20.3071 8.08647 21.7943 6.70505 27.4625 6.70505C29.9739 6.70505 31.3207 6.3165 32.85 5.17251C33.3832 4.7624 33.9021 4.47103 33.9442 4.43865C34.8141 3.70477 31.9521 1.53546 31.9521 1.42754C31.9521 1.39516 33.327 1.35203 35.0106 1.35203C37.7746 1.34123 40.4964 1.15776 41.6328 0.920331C41.9275 0.855577 41.9555 0.877129 41.8573 1.04981C41.2961 2.09667 40.2439 5.43155 39.9492 7.13674C39.8651 7.64398 39.7809 8.06485 39.7528 8.07565C39.7388 8.08644 39.3459 7.7627 38.897 7.35259C37.8167 6.37048 37.971 6.3489 35.0948 7.89221C33.4814 8.7556 32.4852 9.0362 30.3386 9.24125C25.1475 9.74853 24.3757 10.3744 24.7545 13.7308C25.3298 18.76 23.0711 21.6525 17.8519 22.5699C17.2345 22.6778 15.9999 22.8936 15.116 23.0447C10.0371 23.9189 9.18121 25.8184 9.61614 33.0816C9.81256 36.3517 11.8049 35.8553 11.5523 34.1069C10.5001 27.1566 11.7768 25.1061 17.8519 23.9513C25.0914 22.5806 27.4344 19.9688 26.5505 14.2272C26.1296 11.4428 26.9574 10.7305 30.97 10.4391C34.2951 10.2017 35.179 9.73763 37.4659 8.39942C37.4659 8.39942 39.43 9.74842 39.8368 10.0722C40.4822 10.5686 41.2681 10.2666 41.4645 9.4463C41.689 8.56132 43.4147 3.16515 43.8636 1.95641C44.6212 -0.0617599 44.2565 -0.288431 41.1278 0.251183Z" fill="#EE46D3"/>
</svg>
