<svg width="396" height="62" viewBox="0 0 396 62" fill="none" xmlns="http://www.w3.org/2000/svg">
<path d="M44.9573 9.248C46.7173 9.248 48.2613 9.592 49.5893 10.28C50.9333 10.968 51.9653 11.952 52.6853 13.232C53.4213 14.496 53.7893 15.968 53.7893 17.648C53.7893 19.328 53.4213 20.8 52.6853 22.064C51.9653 23.312 50.9333 24.28 49.5893 24.968C48.2613 25.656 46.7173 26 44.9573 26H39.1013V9.248H44.9573ZM44.8373 23.144C46.5973 23.144 47.9573 22.664 48.9173 21.704C49.8773 20.744 50.3573 19.392 50.3573 17.648C50.3573 15.904 49.8773 14.544 48.9173 13.568C47.9573 12.576 46.5973 12.08 44.8373 12.08H42.4613V23.144H44.8373ZM64.0804 26.168C62.5124 26.168 61.0724 25.8 59.7604 25.064C58.4484 24.328 57.4084 23.312 56.6404 22.016C55.8724 20.704 55.4884 19.224 55.4884 17.576C55.4884 15.944 55.8724 14.48 56.6404 13.184C57.4084 11.872 58.4484 10.848 59.7604 10.112C61.0724 9.376 62.5124 9.008 64.0804 9.008C65.6644 9.008 67.1044 9.376 68.4004 10.112C69.7124 10.848 70.7444 11.872 71.4964 13.184C72.2644 14.48 72.6484 15.944 72.6484 17.576C72.6484 19.224 72.2644 20.704 71.4964 22.016C70.7444 23.312 69.7124 24.328 68.4004 25.064C67.0884 25.8 65.6484 26.168 64.0804 26.168ZM64.0804 23.168C65.0884 23.168 65.9764 22.944 66.7444 22.496C67.5124 22.032 68.1124 21.376 68.5444 20.528C68.9764 19.68 69.1924 18.696 69.1924 17.576C69.1924 16.456 68.9764 15.48 68.5444 14.648C68.1124 13.8 67.5124 13.152 66.7444 12.704C65.9764 12.256 65.0884 12.032 64.0804 12.032C63.0724 12.032 62.1764 12.256 61.3924 12.704C60.6244 13.152 60.0244 13.8 59.5924 14.648C59.1604 15.48 58.9444 16.456 58.9444 17.576C58.9444 18.696 59.1604 19.68 59.5924 20.528C60.0244 21.376 60.6244 22.032 61.3924 22.496C62.1764 22.944 63.0724 23.168 64.0804 23.168ZM89.4762 26H86.1162L78.5082 14.504V26H75.1482V9.224H78.5082L86.1162 20.744V9.224H89.4762V26ZM93.4686 9.248H96.9966L94.4046 15.296H92.1006L93.4686 9.248ZM110.806 9.248V11.96H106.342V26H102.982V11.96H98.518V9.248H110.806ZM131.456 28.952L128.912 25.904C128.208 26.08 127.488 26.168 126.752 26.168C125.184 26.168 123.744 25.8 122.432 25.064C121.12 24.328 120.08 23.312 119.312 22.016C118.544 20.704 118.16 19.224 118.16 17.576C118.16 15.944 118.544 14.48 119.312 13.184C120.08 11.872 121.12 10.848 122.432 10.112C123.744 9.376 125.184 9.008 126.752 9.008C128.336 9.008 129.776 9.376 131.072 10.112C132.384 10.848 133.416 11.872 134.168 13.184C134.936 14.48 135.32 15.944 135.32 17.576C135.32 19.064 135 20.424 134.36 21.656C133.736 22.872 132.88 23.864 131.792 24.632L135.632 28.952H131.456ZM121.616 17.576C121.616 18.696 121.832 19.68 122.264 20.528C122.696 21.376 123.296 22.032 124.064 22.496C124.848 22.944 125.744 23.168 126.752 23.168C127.76 23.168 128.648 22.944 129.416 22.496C130.184 22.032 130.784 21.376 131.216 20.528C131.648 19.68 131.864 18.696 131.864 17.576C131.864 16.456 131.648 15.48 131.216 14.648C130.784 13.8 130.184 13.152 129.416 12.704C128.648 12.256 127.76 12.032 126.752 12.032C125.744 12.032 124.848 12.256 124.064 12.704C123.296 13.152 122.696 13.8 122.264 14.648C121.832 15.48 121.616 16.456 121.616 17.576ZM141.179 9.248V19.616C141.179 20.752 141.475 21.624 142.067 22.232C142.659 22.824 143.491 23.12 144.563 23.12C145.651 23.12 146.491 22.824 147.083 22.232C147.675 21.624 147.971 20.752 147.971 19.616V9.248H151.355V19.592C151.355 21.016 151.043 22.224 150.419 23.216C149.811 24.192 148.987 24.928 147.947 25.424C146.923 25.92 145.779 26.168 144.515 26.168C143.267 26.168 142.131 25.92 141.107 25.424C140.099 24.928 139.299 24.192 138.707 23.216C138.115 22.224 137.819 21.016 137.819 19.592V9.248H141.179ZM157.961 9.248V26H154.601V9.248H157.961ZM172.681 9.248V11.96H168.217V26H164.857V11.96H160.393V9.248H172.681ZM176.621 26.168C176.013 26.168 175.509 25.984 175.109 25.616C174.725 25.232 174.533 24.76 174.533 24.2C174.533 23.64 174.725 23.176 175.109 22.808C175.509 22.424 176.013 22.232 176.621 22.232C177.213 22.232 177.701 22.424 178.085 22.808C178.469 23.176 178.661 23.64 178.661 24.2C178.661 24.76 178.469 25.232 178.085 25.616C177.701 25.984 177.213 26.168 176.621 26.168ZM209.478 9.248L204.798 26H200.838L197.694 14.072L194.406 26L190.47 26.024L185.958 9.248H189.558L192.51 22.256L195.918 9.248H199.662L202.878 22.184L205.854 9.248H209.478ZM215.032 11.96V16.16H220.672V18.824H215.032V23.264H221.392V26H211.672V9.224H221.392V11.96H215.032ZM229.348 17.6C229.348 15.952 229.716 14.48 230.452 13.184C231.204 11.872 232.22 10.856 233.5 10.136C234.796 9.4 236.244 9.032 237.844 9.032C239.716 9.032 241.356 9.512 242.764 10.472C244.172 11.432 245.156 12.76 245.716 14.456H241.852C241.468 13.656 240.924 13.056 240.22 12.656C239.532 12.256 238.732 12.056 237.82 12.056C236.844 12.056 235.972 12.288 235.204 12.752C234.452 13.2 233.86 13.84 233.428 14.672C233.012 15.504 232.804 16.48 232.804 17.6C232.804 18.704 233.012 19.68 233.428 20.528C233.86 21.36 234.452 22.008 235.204 22.472C235.972 22.92 236.844 23.144 237.82 23.144C238.732 23.144 239.532 22.944 240.22 22.544C240.924 22.128 241.468 21.52 241.852 20.72H245.716C245.156 22.432 244.172 23.768 242.764 24.728C241.372 25.672 239.732 26.144 237.844 26.144C236.244 26.144 234.796 25.784 233.5 25.064C232.22 24.328 231.204 23.312 230.452 22.016C229.716 20.72 229.348 19.248 229.348 17.6ZM258.858 22.808H252.186L251.082 26H247.554L253.578 9.224H257.49L263.514 26H259.962L258.858 22.808ZM257.946 20.12L255.522 13.112L253.098 20.12H257.946ZM280.093 26H276.733L269.125 14.504V26H265.765V9.224H269.125L276.733 20.744V9.224H280.093V26ZM303.029 9.248V26H299.669V18.872H292.493V26H289.133V9.248H292.493V16.136H299.669V9.248H303.029ZM309.696 11.96V16.16H315.336V18.824H309.696V23.264H316.056V26H306.336V9.224H316.056V11.96H309.696ZM322.469 23.336H327.989V26H319.109V9.248H322.469V23.336ZM342.341 14.432C342.341 15.328 342.125 16.168 341.693 16.952C341.277 17.736 340.613 18.368 339.701 18.848C338.805 19.328 337.669 19.568 336.293 19.568H333.485V26H330.125V9.248H336.293C337.589 9.248 338.693 9.472 339.605 9.92C340.517 10.368 341.197 10.984 341.645 11.768C342.109 12.552 342.341 13.44 342.341 14.432ZM336.149 16.856C337.077 16.856 337.765 16.648 338.213 16.232C338.661 15.8 338.885 15.2 338.885 14.432C338.885 12.8 337.973 11.984 336.149 11.984H333.485V16.856H336.149ZM349.07 8.96L348.686 20.552H345.854L345.446 8.96H349.07ZM347.342 26.168C346.734 26.168 346.23 25.984 345.83 25.616C345.446 25.232 345.254 24.76 345.254 24.2C345.254 23.64 345.446 23.176 345.83 22.808C346.23 22.424 346.734 22.232 347.342 22.232C347.934 22.232 348.422 22.424 348.806 22.808C349.19 23.176 349.382 23.64 349.382 24.2C349.382 24.76 349.19 25.232 348.806 25.616C348.422 25.984 347.934 26.168 347.342 26.168Z" fill="black"/>
<path fill-rule="evenodd" clip-rule="evenodd" d="M395.955 34.3092C395.481 33.0826 391.414 32.5661 379.191 32.1357C367.786 31.7269 354.508 30.5433 331.31 31.1889C313.578 31.6838 291.499 33.6636 291.499 34.7611C291.499 35.5573 292.36 35.5788 300.581 34.8687C308.177 34.2231 312.072 34.0725 316.828 33.9003C297.762 35.5788 293.694 36.6763 283.537 37.7308C277.167 38.3979 280.89 40.3131 283.214 40.1194C283.236 40.1194 312.868 37.7093 315.666 37.8384C315.924 37.8599 313.105 38.2472 309.382 38.6992C298.988 39.9903 300.989 42.142 308.779 41.1521C334.99 37.8166 359.651 36.7837 378.653 38.2255C384.657 38.6774 385.324 38.6774 385.324 38.1179C385.324 37.128 383.689 36.3751 381.128 36.2244C377.125 35.9662 361.717 35.2343 354.745 35.0191C354.207 34.9976 354.465 34.5889 354.939 34.5459C357.779 34.2661 380.332 34.4811 389.198 34.7824C395.718 34.9976 396.191 34.9763 395.955 34.3092Z" fill="#F531B3"/>
</svg>
