<svg width="33" height="29" viewBox="0 0 33 29" fill="none" xmlns="http://www.w3.org/2000/svg">
<path d="M5.65012 27.6091C6.58433 27.2258 10.3347 25.9701 11.7699 25.5604C13.4759 25.0713 13.4217 25.111 13.4758 24.2386C13.7195 19.2292 13.9767 18.2115 14.5047 18.7402C14.6401 18.8724 14.6267 21.4101 14.4778 23.287C14.2882 25.6132 14.1799 25.719 11.296 26.5517C9.45469 27.0804 8.73708 27.3711 8.0195 27.6355C12.7583 27.6355 22.1951 27.6487 22.1951 27.5958C22.1951 27.5694 21.112 27.0539 19.7987 26.4327C16.8742 25.0581 17.1585 25.5075 17.2533 22.4146C17.4022 17.9736 17.3887 18 19.3519 17.2598C20.7329 16.7443 22.3034 15.8588 23.1429 15.1318C23.8063 14.5635 23.8876 14.5238 24.05 14.7749C24.551 15.5416 26.8527 15.7398 28.0983 15.1318C33.338 12.528 31.8351 3.34187 26.4059 4.82222C25.6341 5.0337 25.431 5.04692 25.2279 4.90152C24.226 4.22744 16.847 3.81771 12.5415 3.80449C12.1624 3.80449 8.64228 4.201 11.1064 3.30222C13.5841 2.39022 21.3286 2.33734 24.8353 3.71196C25.1467 3.83091 25.1331 2.62813 24.8217 2.32413C24.226 1.769 19.4467 1.01561 14.6538 1.25352C12.2031 1.37248 9.9691 1.88796 8.77764 2.24483C8.39854 2.36378 8.12778 2.70744 8.12778 3.10396V3.46082C8.12778 4.49178 7.7216 5.36413 7.24773 5.36413C7.0311 5.36413 6.88211 4.9544 6.99043 4.67683C7.19352 4.17457 4.98661 2.85282 3.94408 2.85282C0.193691 2.85282 0.437481 8.78744 2.60377 12.1843C4.59405 15.3036 5.9479 15.8059 9.5629 14.7485C11.5396 14.1669 13.6247 14.0215 19.4196 14.7353C21.0714 14.9468 20.5704 15.568 18.4448 15.5283C13.3134 15.4226 10.5107 15.5151 10.7679 15.7795C11.0658 16.0967 12.4198 16.8104 13.3269 17.1144C14.7621 17.6035 14.0039 18.7005 12.7854 18.1454C11.8782 17.7224 10.3482 16.7972 9.6848 16.2024C9.11615 15.7002 9.06197 15.6737 8.77764 15.8456C5.56883 17.8414 2.11638 15.6605 0.464584 10.5718C-1.30907 5.09979 2.2788 0.275433 6.43537 2.56205L7.16654 2.95857L7.31542 2.52239C7.55913 1.79543 8.14135 1.26674 8.96725 0.975956C12.9478 -0.372221 21.7618 -0.438308 25.5664 1.50465C26.0809 1.769 26.4059 2.29769 26.4059 2.86604C26.4059 2.89247 26.4059 4.05562 26.4059 4.01596L26.7849 3.92343C32.16 2.60169 35.2064 10.0299 31.0905 14.4313C29.4387 16.2024 26.961 16.8236 24.5645 16.0702L23.7386 15.8059L23.2918 16.2421C22.6284 16.903 20.9089 17.8282 19.5956 18.2379L18.4177 18.5948C18.2687 19.7843 18.2552 19.6125 18.3364 24.807C19.2435 25.2035 24.226 27.3447 25.2415 27.6619C26.3246 27.9924 25.9997 28.7458 25.1873 28.7722C24.0906 28.8118 20.5569 28.8383 16.4545 28.8383C10.619 28.8383 5.36579 28.9969 5.37933 28.9969C4.81068 29.063 4.56697 28.0585 5.65012 27.6091Z" fill="#EE46D3"/>
</svg>
