<svg width="27" height="25" viewBox="0 0 27 25" fill="none" xmlns="http://www.w3.org/2000/svg">
<path fill-rule="evenodd" clip-rule="evenodd" d="M2.69499 6.4177C-3.86676 16.026 2.26227 24.7149 13.4389 23.9758C25.5349 23.1646 28.4192 12.6369 26.4181 7.95004C23.6061 1.38824 19.7303 -0.0178492 13.4029 0.000170065C9.88767 0.0182027 6.69694 0.559007 2.69499 6.4177ZM21.8936 17.2879C18.4684 23.8135 7.12953 24.3183 4.083 18.081C1.36095 12.5108 6.22824 1.71272 13.6913 1.62258C20.6497 1.53245 26.7247 8.09419 21.8936 17.2879ZM19.0633 10.023C18.3422 10.5999 18.198 10.5819 17.1343 9.82484C16.6117 9.44617 15.8905 9.78866 15.8905 10.4016C15.8905 11.9159 19.532 12.3124 20.8479 10.9424C22.0377 9.69857 20.4874 8.88744 19.0633 10.023ZM10.1219 9.98701C9.97777 10.0591 9.63527 10.2574 9.36485 10.4378C8.91423 10.7441 8.84215 10.7441 8.33734 10.4738C7.05743 9.80668 5.88573 10.3655 6.75101 11.2309C7.74249 12.2223 10.8431 11.9159 11.3658 10.7803C11.6722 10.1673 10.8611 9.64451 10.1219 9.98701ZM12.2852 12.8893C9.09442 13.6284 7.38193 17.414 10.2302 17.414C11.1676 17.414 11.3658 17.2518 11.9066 16.062C13.0422 13.5383 16.6117 14.0251 16.6117 16.711C16.6117 17.414 17.9636 17.8467 18.7929 17.414C19.8384 16.8553 18.1259 14.1332 16.1971 13.2678C15.2597 12.8533 13.2946 12.6729 12.2852 12.8893Z" fill="black"/>
</svg>
