<svg width="250" height="62" viewBox="0 0 250 62" fill="none" xmlns="http://www.w3.org/2000/svg">
<path d="M59.9135 9.248L54.2495 20.168V26H50.8895V20.168L45.2015 9.248H48.9935L52.5935 16.904L56.1695 9.248H59.9135ZM69.6273 26.168C68.0593 26.168 66.6193 25.8 65.3073 25.064C63.9953 24.328 62.9553 23.312 62.1873 22.016C61.4193 20.704 61.0353 19.224 61.0353 17.576C61.0353 15.944 61.4193 14.48 62.1873 13.184C62.9553 11.872 63.9953 10.848 65.3073 10.112C66.6193 9.376 68.0593 9.008 69.6273 9.008C71.2113 9.008 72.6513 9.376 73.9473 10.112C75.2593 10.848 76.2913 11.872 77.0433 13.184C77.8113 14.48 78.1953 15.944 78.1953 17.576C78.1953 19.224 77.8113 20.704 77.0433 22.016C76.2913 23.312 75.2593 24.328 73.9473 25.064C72.6353 25.8 71.1953 26.168 69.6273 26.168ZM69.6273 23.168C70.6353 23.168 71.5233 22.944 72.2913 22.496C73.0593 22.032 73.6593 21.376 74.0913 20.528C74.5233 19.68 74.7393 18.696 74.7393 17.576C74.7393 16.456 74.5233 15.48 74.0913 14.648C73.6593 13.8 73.0593 13.152 72.2913 12.704C71.5233 12.256 70.6353 12.032 69.6273 12.032C68.6193 12.032 67.7233 12.256 66.9393 12.704C66.1713 13.152 65.5713 13.8 65.1393 14.648C64.7073 15.48 64.4913 16.456 64.4913 17.576C64.4913 18.696 64.7073 19.68 65.1393 20.528C65.5713 21.376 66.1713 22.032 66.9393 22.496C67.7233 22.944 68.6193 23.168 69.6273 23.168ZM84.0071 9.248V19.616C84.0071 20.752 84.3031 21.624 84.8951 22.232C85.4871 22.824 86.3191 23.12 87.3911 23.12C88.4791 23.12 89.3191 22.824 89.9111 22.232C90.5031 21.624 90.7991 20.752 90.7991 19.616V9.248H94.1831V19.592C94.1831 21.016 93.8711 22.224 93.2471 23.216C92.6391 24.192 91.8151 24.928 90.7751 25.424C89.7511 25.92 88.6071 26.168 87.3431 26.168C86.0951 26.168 84.9591 25.92 83.9351 25.424C82.9271 24.928 82.1271 24.192 81.5351 23.216C80.9431 22.224 80.6471 21.016 80.6471 19.592V9.248H84.0071ZM106.069 26L102.373 19.472H100.789V26H97.4294V9.248H103.717C105.013 9.248 106.117 9.48 107.029 9.944C107.941 10.392 108.621 11.008 109.069 11.792C109.533 12.56 109.765 13.424 109.765 14.384C109.765 15.488 109.445 16.488 108.805 17.384C108.165 18.264 107.213 18.872 105.949 19.208L109.957 26H106.069ZM100.789 16.952H103.597C104.509 16.952 105.189 16.736 105.637 16.304C106.085 15.856 106.309 15.24 106.309 14.456C106.309 13.688 106.085 13.096 105.637 12.68C105.189 12.248 104.509 12.032 103.597 12.032H100.789V16.952ZM128.867 9.248V11.96H121.883V16.256H127.235V18.92H121.883V26H118.523V9.248H128.867ZM134.562 9.248V19.616C134.562 20.752 134.858 21.624 135.45 22.232C136.042 22.824 136.874 23.12 137.946 23.12C139.034 23.12 139.874 22.824 140.466 22.232C141.058 21.624 141.354 20.752 141.354 19.616V9.248H144.738V19.592C144.738 21.016 144.426 22.224 143.802 23.216C143.194 24.192 142.37 24.928 141.33 25.424C140.306 25.92 139.162 26.168 137.898 26.168C136.65 26.168 135.514 25.92 134.49 25.424C133.482 24.928 132.682 24.192 132.09 23.216C131.498 22.224 131.202 21.016 131.202 19.592V9.248H134.562ZM159.384 9.248V11.96H154.92V26H151.56V11.96H147.096V9.248H159.384ZM165.148 9.248V19.616C165.148 20.752 165.444 21.624 166.036 22.232C166.628 22.824 167.46 23.12 168.532 23.12C169.62 23.12 170.46 22.824 171.052 22.232C171.644 21.624 171.94 20.752 171.94 19.616V9.248H175.324V19.592C175.324 21.016 175.012 22.224 174.388 23.216C173.78 24.192 172.956 24.928 171.916 25.424C170.892 25.92 169.748 26.168 168.484 26.168C167.236 26.168 166.1 25.92 165.076 25.424C164.068 24.928 163.268 24.192 162.676 23.216C162.084 22.224 161.788 21.016 161.788 19.592V9.248H165.148ZM187.21 26L183.514 19.472H181.93V26H178.57V9.248H184.858C186.154 9.248 187.258 9.48 188.17 9.944C189.082 10.392 189.762 11.008 190.21 11.792C190.674 12.56 190.906 13.424 190.906 14.384C190.906 15.488 190.586 16.488 189.946 17.384C189.306 18.264 188.354 18.872 187.09 19.208L191.098 26H187.21ZM181.93 16.952H184.738C185.65 16.952 186.33 16.736 186.778 16.304C187.226 15.856 187.45 15.24 187.45 14.456C187.45 13.688 187.226 13.096 186.778 12.68C186.33 12.248 185.65 12.032 184.738 12.032H181.93V16.952ZM197.305 11.96V16.16H202.945V18.824H197.305V23.264H203.665V26H193.945V9.224H203.665V11.96H197.305Z" fill="black"/>
<path fill-rule="evenodd" clip-rule="evenodd" d="M214.955 35.8497C214.49 34.0521 210.493 33.2952 198.481 32.6644C187.272 32.0652 174.224 30.3307 151.426 31.2768C133.999 32.0021 112.301 34.9036 112.301 36.512C112.301 37.6788 113.147 37.7104 121.226 36.6696C128.691 35.7235 132.519 35.5028 137.193 35.2505C118.455 37.7104 114.458 39.3188 104.476 40.8641C98.2163 41.8417 101.875 44.6485 104.159 44.3647C104.18 44.3647 133.301 40.8325 136.051 41.0218C136.305 41.0533 133.534 41.621 129.875 42.2832C119.661 44.1755 121.628 47.3289 129.283 45.8781C155.042 40.9899 179.278 39.4761 197.952 41.5891C203.853 42.2514 204.508 42.2514 204.508 41.4314C204.508 39.9807 202.901 38.8772 200.384 38.6565C196.451 38.278 181.308 37.2055 174.456 36.8901C173.928 36.8585 174.181 36.2597 174.647 36.1966C177.438 35.7866 199.602 36.1017 208.315 36.5432C214.723 36.8585 215.188 36.8273 214.955 35.8497Z" fill="#F24822"/>
</svg>
